<svg xmlns="http://www.w3.org/2000/svg" width="775" height="851" viewBox="0 0 775 851" fill="none"><mask id="mask0_930_14" style="mask-type:alpha" maskUnits="userSpaceOnUse" x="0" y="0" width="775" height="851"><rect width="775" height="851" fill="#D9D9D9"></rect></mask><g mask="url(#mask0_930_14)"><g opacity="0.5" clip-path="url(#clip0_930_14)"><path d="M712.53 165.76C775.672 242.98 771.175 376.18 743.831 507.22C716.308 638.26 666.118 767.32 583.367 793.42C500.796 819.52 385.665 742.84 291.941 676.6C198.037 610.54 125.54 554.92 100.715 478.96C75.8894 403.18 98.9157 306.88 154.862 231.46C210.629 156.04 299.136 101.32 408.871 84.4C518.606 67.66 649.388 88.72 712.53 165.76Z" fill="#DCEEEC"></path></g><g opacity="0.5" clip-path="url(#clip1_930_14)"><path d="M252.951 133.096C351.021 114.867 465.646 182.863 567.391 269.852C669.049 356.999 758.072 463.067 741.163 548.173C724.341 633.121 601.744 697.193 498.596 747.515C395.519 798.082 311.89 834.9 233.351 820.139C154.97 805.464 81.6086 738.966 42.385 653.645C3.07482 568.481 -2.34158 464.566 35.5924 360.215C73.6841 255.952 155.04 151.411 252.951 133.096Z" fill="#FFD966" fill-opacity="0.75"></path></g><rect x="249" y="27" width="358" height="766" rx="46" fill="white" fill-opacity="0.2" stroke="black" stroke-width="8"></rect><path d="M568.2 796.295C568.2 796.136 477.712 796 366.109 796C254.507 796 164 796.136 164 796.295C164 796.454 254.47 796.59 366.109 796.59C477.749 796.59 568.2 796.454 568.2 796.295Z" fill="#263238"></path><path d="M575.566 705.057C576.03 705.057 576.474 704.882 576.802 704.569C577.13 704.257 577.314 703.833 577.314 703.392C577.323 703.055 577.225 702.724 577.033 702.441C576.841 702.159 576.564 701.939 576.238 701.809C575.912 701.68 575.552 701.648 575.207 701.717C574.861 701.787 574.546 701.954 574.302 702.198C574.047 702.43 573.872 702.73 573.799 703.059C573.726 703.387 573.759 703.73 573.894 704.04C574.029 704.351 574.259 704.615 574.554 704.799C574.85 704.982 575.196 705.076 575.549 705.068L575.566 705.057Z" fill="#328278"></path><path d="M575.869 706.39C575.874 706.828 576.056 707.248 576.376 707.562C576.705 707.864 577.142 708.037 577.599 708.045C578.057 708.039 578.495 707.866 578.823 707.562C579.145 707.25 579.325 706.83 579.325 706.393C579.325 705.955 579.145 705.536 578.823 705.224C578.578 705.001 578.27 704.851 577.937 704.792C577.604 704.733 577.261 704.767 576.948 704.89C576.635 705.014 576.366 705.221 576.175 705.488C575.984 705.754 575.877 706.067 575.869 706.39Z" fill="#328278"></path><path d="M577.529 708.389C577.303 708.605 577.15 708.88 577.089 709.18C577.028 709.479 577.062 709.79 577.187 710.071C577.312 710.352 577.523 710.591 577.791 710.757C578.06 710.923 578.374 711.009 578.694 711.004C579.12 710.999 579.526 710.838 579.83 710.554C580.055 710.34 580.208 710.067 580.269 709.77C580.331 709.473 580.3 709.165 580.178 708.885C580.056 708.605 579.851 708.366 579.587 708.198C579.323 708.029 579.012 707.939 578.694 707.939C578.259 707.937 577.841 708.099 577.529 708.389Z" fill="#328278"></path><path d="M578.485 711.787C578.147 711.984 577.884 712.279 577.734 712.628C577.584 712.978 577.556 713.364 577.652 713.73C577.778 714.163 578.077 714.532 578.485 714.757L578.916 714.935C579.232 715.013 579.562 715.013 579.877 714.935C580.111 714.892 580.326 714.784 580.495 714.624C580.714 714.47 580.888 714.266 581.002 714.03L580.949 714.152C581.001 714.089 581.035 714.015 581.048 713.936C581.158 713.732 581.212 713.504 581.205 713.275C581.197 712.896 581.06 712.53 580.815 712.231C580.579 711.935 580.251 711.718 579.877 711.609C579.645 711.55 579.402 711.535 579.163 711.565C578.924 711.596 578.694 711.671 578.485 711.787Z" fill="#328278"></path><path d="M579.737 716.606C579.302 716.616 578.886 716.781 578.572 717.067C578.301 717.325 578.132 717.665 578.094 718.028C578.057 718.391 578.152 718.756 578.365 719.059C578.578 719.363 578.894 719.587 579.261 719.692C579.627 719.798 580.021 719.78 580.375 719.64C580.728 719.5 581.02 719.247 581.2 718.925C581.38 718.603 581.438 718.231 581.362 717.873C581.287 717.515 581.084 717.194 580.788 716.963C580.491 716.731 580.12 716.606 579.737 716.606Z" fill="#328278"></path><path d="M580.908 721.809C580.757 721.587 580.559 721.398 580.326 721.254C579.935 721.05 579.477 720.992 579.044 721.093C578.733 721.151 578.437 721.269 578.177 721.441C577.916 721.613 577.696 721.835 577.53 722.093C577.401 722.295 577.309 722.517 577.256 722.748C577.172 723.055 577.173 723.377 577.256 723.684C577.34 723.991 577.504 724.273 577.733 724.502C578.003 724.755 578.354 724.915 578.73 724.958C579.112 724.999 579.499 724.931 579.842 724.763C580.2 724.582 580.476 724.282 580.617 723.919L580.547 724.069L580.768 723.625L580.687 723.803C580.74 723.693 580.802 723.587 580.873 723.486L580.826 723.542C581.018 723.293 581.128 722.996 581.143 722.687C581.158 722.379 581.076 722.073 580.908 721.809Z" fill="#328278"></path><path d="M578.479 728.117C578.07 728.12 577.678 728.273 577.384 728.544C577.168 728.751 577.02 729.014 576.961 729.3C576.901 729.587 576.932 729.884 577.049 730.153C577.166 730.423 577.364 730.654 577.619 730.816C577.874 730.978 578.173 731.065 578.479 731.065C578.889 731.059 579.28 730.904 579.574 730.632C579.789 730.425 579.934 730.163 579.993 729.877C580.052 729.592 580.02 729.296 579.903 729.028C579.787 728.759 579.589 728.529 579.336 728.367C579.082 728.205 578.784 728.118 578.479 728.117Z" fill="#328278"></path><path d="M578.951 733.641L578.601 733.38L578.188 733.214C577.813 733.116 577.413 733.145 577.058 733.297C576.744 733.42 576.476 733.63 576.287 733.899C576.098 734.167 575.998 734.484 575.998 734.807C576.003 735.095 576.085 735.376 576.234 735.625C576.384 735.875 576.597 736.084 576.854 736.234C577.187 736.416 577.575 736.485 577.955 736.429C578.334 736.396 578.687 736.235 578.951 735.973V735.94C579.256 735.642 579.432 735.246 579.446 734.83C579.42 734.416 579.245 734.024 578.951 733.719V733.641Z" fill="#328278"></path><path d="M578.252 738.594C577.996 738.357 577.672 738.197 577.321 738.134C576.97 738.071 576.607 738.107 576.277 738.239C575.988 738.351 575.736 738.535 575.546 738.771C575.357 739.007 575.237 739.288 575.2 739.583C575.154 739.886 575.196 740.195 575.322 740.477C575.461 740.825 575.722 741.115 576.062 741.299C576.229 741.382 576.402 741.452 576.58 741.51C576.952 741.615 577.352 741.588 577.704 741.432C577.959 741.332 578.184 741.174 578.36 740.971C578.536 740.769 578.657 740.529 578.712 740.271C578.785 739.97 578.785 739.657 578.712 739.355C578.628 739.069 578.47 738.807 578.252 738.594Z" fill="#328278"></path><path d="M577.704 745.79C577.702 745.353 577.52 744.935 577.197 744.624C576.868 744.322 576.431 744.149 575.974 744.141C575.634 744.148 575.304 744.249 575.024 744.431C574.743 744.614 574.525 744.871 574.395 745.17C574.265 745.47 574.23 745.798 574.293 746.117C574.356 746.435 574.515 746.729 574.751 746.962C575.077 747.267 575.517 747.438 575.974 747.438C576.431 747.438 576.871 747.267 577.197 746.962C577.521 746.65 577.704 746.229 577.704 745.79Z" fill="#328278"></path><path d="M575.223 749.838C574.754 749.844 574.306 750.021 573.97 750.332C573.713 750.564 573.535 750.865 573.461 751.196C573.387 751.526 573.42 751.87 573.556 752.182C573.692 752.494 573.924 752.759 574.222 752.943C574.519 753.126 574.869 753.219 575.223 753.208C575.691 753.202 576.139 753.025 576.475 752.714C576.733 752.482 576.91 752.181 576.984 751.851C577.058 751.521 577.025 751.177 576.889 750.865C576.754 750.553 576.521 750.287 576.224 750.104C575.926 749.921 575.577 749.828 575.223 749.838Z" fill="#328278"></path><path d="M574.471 755.646C574.023 755.646 573.594 755.816 573.277 756.118C572.96 756.42 572.782 756.829 572.782 757.256C572.79 757.674 572.967 758.072 573.277 758.367C573.594 758.668 574.023 758.838 574.471 758.838C574.919 758.838 575.349 758.668 575.665 758.367C575.822 758.218 575.946 758.041 576.031 757.846C576.116 757.651 576.159 757.442 576.159 757.231C576.159 757.02 576.116 756.811 576.031 756.617C575.946 756.422 575.822 756.245 575.665 756.096C575.342 755.807 574.915 755.646 574.471 755.646Z" fill="#328278"></path><path d="M573.429 761.515C573.172 761.758 572.997 762.068 572.926 762.407C572.855 762.745 572.891 763.095 573.03 763.414C573.169 763.732 573.403 764.004 573.705 764.195C574.006 764.386 574.36 764.487 574.722 764.486C575.205 764.479 575.668 764.296 576.015 763.975C576.329 763.643 576.497 763.208 576.485 762.761C576.473 762.314 576.281 761.889 575.949 761.573C575.616 761.257 575.17 761.075 574.701 761.064C574.232 761.053 573.776 761.215 573.429 761.515Z" fill="#328278"></path><path d="M575.968 769.555C576.175 769.35 576.335 769.105 576.435 768.837C576.535 768.569 576.575 768.284 576.551 768C576.551 767.536 576.357 767.091 576.013 766.763C575.669 766.435 575.202 766.251 574.716 766.251C574.229 766.251 573.762 766.435 573.418 766.763C573.074 767.091 572.881 767.536 572.881 768C572.858 768.284 572.898 768.569 572.998 768.837C573.098 769.105 573.257 769.349 573.463 769.555C573.799 769.865 574.248 770.038 574.716 770.038C575.183 770.038 575.632 769.865 575.968 769.555Z" fill="#328278"></path><path d="M573.318 774.78C573.451 775.211 573.748 775.579 574.151 775.813C574.566 776.043 575.061 776.107 575.526 775.991C575.991 775.874 576.389 775.586 576.632 775.191C576.757 774.994 576.837 774.774 576.868 774.545C576.899 774.317 576.88 774.085 576.813 773.864L576.76 773.736C576.622 773.309 576.329 772.943 575.933 772.703C575.511 772.474 575.011 772.412 574.541 772.531C574.08 772.653 573.689 772.944 573.453 773.341C573.217 773.738 573.156 774.207 573.283 774.647L573.318 774.78Z" fill="#328278"></path><path d="M576.964 782.192C577.32 781.845 577.517 781.378 577.512 780.893C577.503 780.443 577.316 780.012 576.987 779.688C576.651 779.368 576.195 779.189 575.72 779.189C575.245 779.189 574.79 779.368 574.454 779.688C574.134 780.017 573.948 780.445 573.929 780.893C573.926 781.134 573.974 781.373 574.069 781.596C574.164 781.819 574.304 782.022 574.483 782.192C574.645 782.349 574.838 782.472 575.051 782.557C575.264 782.642 575.493 782.685 575.723 782.685C575.954 782.685 576.182 782.642 576.395 782.557C576.608 782.472 576.802 782.349 576.964 782.192Z" fill="#328278"></path><path d="M574.786 788.517C574.924 788.741 575.114 788.932 575.341 789.076C575.569 789.219 575.828 789.311 576.098 789.344C576.369 789.377 576.644 789.35 576.902 789.266C577.16 789.182 577.394 789.043 577.587 788.859C577.779 788.675 577.925 788.451 578.013 788.205C578.1 787.959 578.128 787.696 578.092 787.439C578.057 787.181 577.96 786.934 577.809 786.718C577.658 786.501 577.457 786.321 577.221 786.19L577.105 786.123C576.771 785.938 576.382 785.862 575.998 785.91C575.615 785.957 575.259 786.124 574.986 786.385C574.713 786.646 574.538 786.986 574.49 787.352C574.441 787.717 574.521 788.088 574.716 788.406L574.786 788.517Z" fill="#328278"></path><path d="M576.504 791.193C576.048 791.196 575.611 791.37 575.287 791.676C574.969 791.985 574.789 792.399 574.786 792.831C574.788 793.265 574.967 793.682 575.287 793.992C575.612 794.292 576.048 794.46 576.501 794.46C576.954 794.46 577.39 794.292 577.716 793.992C577.936 793.758 578.082 793.469 578.138 793.159C578.193 792.848 578.155 792.53 578.029 792.239C577.902 791.949 577.691 791.698 577.422 791.517C577.152 791.336 576.834 791.231 576.504 791.215V791.193Z" fill="#328278"></path><path d="M576.225 794.824C576.001 794.824 575.779 794.865 575.572 794.946C575.365 795.027 575.177 795.147 575.018 795.297C574.86 795.448 574.734 795.627 574.648 795.824C574.562 796.021 574.518 796.232 574.518 796.446C574.517 796.659 574.561 796.871 574.647 797.068C574.733 797.266 574.86 797.445 575.019 797.595C575.341 797.897 575.773 798.068 576.225 798.073C576.677 798.071 577.11 797.899 577.43 797.594C577.75 797.29 577.93 796.877 577.931 796.446C577.927 796.015 577.747 795.603 577.43 795.296C577.106 795 576.675 794.831 576.225 794.824Z" fill="#328278"></path><path d="M572.217 796.423C569.969 796.423 569.963 799.755 572.217 799.755C574.471 799.755 574.465 796.423 572.217 796.423Z" fill="#328278"></path><path d="M568.21 795.213C567.743 795.219 567.297 795.396 566.963 795.707C566.799 795.862 566.669 796.046 566.58 796.249C566.491 796.452 566.445 796.67 566.445 796.89C566.438 797.225 566.537 797.554 566.729 797.834C566.922 798.114 567.198 798.333 567.523 798.461C567.847 798.59 568.205 798.622 568.549 798.553C568.892 798.485 569.207 798.319 569.451 798.078C569.703 797.846 569.877 797.547 569.948 797.22C570.02 796.892 569.987 796.552 569.853 796.243C569.72 795.934 569.491 795.67 569.198 795.487C568.905 795.303 568.561 795.208 568.21 795.213Z" fill="#328278"></path><path d="M564.703 792.198C562.56 792.198 562.554 795.374 564.703 795.374C566.852 795.374 566.847 792.198 564.703 792.198Z" fill="#328278"></path><path d="M564.918 791.371C565.238 791.059 565.419 790.641 565.425 790.205C565.422 789.77 565.24 789.353 564.918 789.044C564.592 788.741 564.154 788.571 563.698 788.571C563.242 788.571 562.804 788.741 562.478 789.044C562.159 789.356 561.981 789.773 561.981 790.208C561.981 790.642 562.159 791.06 562.478 791.371C562.804 791.675 563.242 791.844 563.698 791.844C564.154 791.844 564.592 791.675 564.918 791.371Z" fill="#328278"></path><path d="M562.792 784.075C560.987 784.075 560.987 786.751 562.792 786.751C564.598 786.751 564.598 784.075 562.792 784.075Z" fill="#328278"></path><path d="M562.822 782.132C563.231 782.126 563.623 781.971 563.917 781.698C564.133 781.492 564.28 781.229 564.34 780.942C564.4 780.656 564.369 780.359 564.252 780.09C564.135 779.82 563.936 779.589 563.682 779.427C563.427 779.265 563.128 779.178 562.822 779.178C562.412 779.183 562.02 779.338 561.726 779.611C561.51 779.817 561.363 780.08 561.303 780.367C561.243 780.653 561.274 780.95 561.391 781.22C561.508 781.489 561.707 781.72 561.961 781.882C562.216 782.045 562.515 782.131 562.822 782.132Z" fill="#328278"></path><path d="M562.699 777.967C563.136 777.954 563.552 777.786 563.864 777.495C564.181 777.193 564.359 776.784 564.359 776.357C564.359 775.93 564.181 775.521 563.864 775.219C563.552 774.928 563.136 774.76 562.699 774.747C562.251 774.747 561.822 774.916 561.505 775.218C561.188 775.52 561.01 775.93 561.01 776.357C561.011 776.784 561.189 777.193 561.505 777.495C561.825 777.792 562.253 777.961 562.699 777.967Z" fill="#328278"></path><path d="M562.199 768.75C559.986 768.75 559.986 772.026 562.199 772.026C564.413 772.026 564.413 768.75 562.199 768.75Z" fill="#328278"></path><path d="M562.95 763.864C560.585 763.864 560.585 767.362 562.95 767.362C565.315 767.362 565.315 763.864 562.95 763.864Z" fill="#328278"></path><path d="M562.699 763.686C563.163 763.686 563.607 763.511 563.935 763.198C564.263 762.886 564.447 762.462 564.447 762.02C564.448 761.579 564.266 761.156 563.94 760.843C563.608 760.541 563.17 760.369 562.711 760.36C562.248 760.36 561.803 760.536 561.475 760.848C561.148 761.16 560.964 761.584 560.964 762.026C560.964 762.465 561.146 762.886 561.47 763.197C561.802 763.501 562.24 763.675 562.699 763.686Z" fill="#328278"></path><path d="M561.983 757.29C561.763 757.5 561.614 757.768 561.554 758.059C561.494 758.35 561.525 758.651 561.644 758.925C561.763 759.199 561.964 759.434 562.222 759.599C562.48 759.765 562.784 759.854 563.095 759.855C563.303 759.856 563.508 759.817 563.7 759.742C563.892 759.667 564.066 759.556 564.213 759.416C564.36 759.276 564.476 759.11 564.555 758.927C564.634 758.744 564.675 758.548 564.674 758.35C564.66 757.959 564.491 757.588 564.199 757.312C563.908 757.036 563.517 756.877 563.107 756.868C562.689 756.865 562.287 757.017 561.983 757.29Z" fill="#328278"></path><path d="M562.699 755.135C562.954 755.135 563.203 755.063 563.414 754.928C563.626 754.794 563.791 754.602 563.888 754.378C563.986 754.154 564.011 753.907 563.962 753.669C563.912 753.431 563.789 753.212 563.609 753.04C563.429 752.869 563.2 752.752 562.95 752.705C562.701 752.657 562.442 752.682 562.207 752.774C561.971 752.867 561.77 753.025 561.629 753.226C561.487 753.428 561.412 753.665 561.412 753.908C561.415 754.233 561.551 754.543 561.792 754.773C562.033 755.002 562.359 755.132 562.699 755.135Z" fill="#328278"></path><path d="M563.451 751.565C563.687 751.566 563.921 751.522 564.14 751.436C564.358 751.35 564.557 751.223 564.723 751.064C564.89 750.904 565.022 750.715 565.112 750.506C565.201 750.298 565.247 750.075 565.245 749.849C565.238 749.398 565.046 748.967 564.711 748.648C564.377 748.329 563.925 748.146 563.451 748.139C562.974 748.143 562.517 748.322 562.175 748.639C561.925 748.879 561.754 749.185 561.685 749.517C561.616 749.85 561.652 750.195 561.789 750.508C561.925 750.821 562.156 751.088 562.452 751.276C562.748 751.465 563.095 751.565 563.451 751.565Z" fill="#328278"></path><path d="M563.451 746.496C563.912 746.491 564.352 746.316 564.68 746.007C565.004 745.695 565.185 745.274 565.185 744.835C565.185 744.397 565.004 743.976 564.68 743.664C564.435 743.435 564.126 743.28 563.789 743.218C563.453 743.156 563.105 743.189 562.789 743.314C562.472 743.439 562.201 743.65 562.009 743.92C561.817 744.191 561.713 744.509 561.709 744.835C561.71 745.274 561.892 745.695 562.216 746.007C562.548 746.314 562.989 746.488 563.451 746.496Z" fill="#328278"></path><path d="M563.952 741.609C566.037 741.609 566.037 738.517 563.952 738.517C561.867 738.517 561.861 741.609 563.952 741.609Z" fill="#328278"></path><path d="M564.202 736.274C564.456 736.274 564.705 736.202 564.917 736.067C565.129 735.932 565.294 735.74 565.391 735.516C565.489 735.292 565.514 735.045 565.464 734.807C565.415 734.569 565.292 734.35 565.112 734.179C564.932 734.007 564.703 733.89 564.453 733.843C564.203 733.796 563.944 733.82 563.709 733.913C563.474 734.006 563.273 734.163 563.132 734.365C562.99 734.566 562.915 734.804 562.915 735.046C562.918 735.371 563.054 735.681 563.295 735.911C563.536 736.14 563.861 736.271 564.202 736.274Z" fill="#328278"></path><path d="M564.953 731.276C566.951 731.276 566.957 728.311 564.953 728.311C562.95 728.311 562.944 731.276 564.953 731.276Z" fill="#328278"></path><path d="M564.802 726.557C564.989 726.67 565.207 726.731 565.429 726.731C565.65 726.731 565.868 726.67 566.055 726.557C566.287 726.414 566.47 726.21 566.579 725.968C566.696 725.716 566.719 725.434 566.643 725.168C566.574 724.922 566.425 724.701 566.218 724.539C566.011 724.377 565.755 724.281 565.488 724.264C565.22 724.248 564.954 724.312 564.727 724.447C564.499 724.582 564.322 724.782 564.22 725.019C564.103 725.272 564.08 725.556 564.156 725.824C564.27 726.135 564.5 726.396 564.802 726.557Z" fill="#328278"></path><path d="M566.299 721.682C567.924 721.682 567.924 719.277 566.299 719.277C564.674 719.277 564.674 721.682 566.299 721.682Z" fill="#328278"></path><path d="M566.835 718.189C567.081 718.19 567.321 718.122 567.526 717.992C567.731 717.863 567.891 717.678 567.986 717.462C568.08 717.245 568.105 717.007 568.058 716.777C568.01 716.547 567.892 716.336 567.718 716.17C567.544 716.005 567.322 715.892 567.081 715.846C566.84 715.801 566.59 715.825 566.363 715.915C566.136 716.005 565.942 716.158 565.807 716.353C565.671 716.548 565.599 716.778 565.6 717.012C565.604 717.323 565.736 717.62 565.967 717.84C566.197 718.059 566.509 718.185 566.835 718.189Z" fill="#328278"></path><path d="M567.459 713.619C567.645 713.619 567.828 713.566 567.983 713.468C568.138 713.369 568.259 713.228 568.33 713.064C568.402 712.899 568.42 712.719 568.384 712.544C568.348 712.37 568.258 712.209 568.126 712.084C567.994 711.958 567.826 711.872 567.643 711.837C567.46 711.803 567.27 711.82 567.097 711.889C566.925 711.957 566.778 712.072 566.674 712.22C566.57 712.368 566.515 712.542 566.515 712.72C566.518 712.957 566.618 713.184 566.795 713.352C566.971 713.52 567.209 713.616 567.459 713.619Z" fill="#328278"></path><path d="M570.836 707.45C570.605 707.232 570.317 707.076 570.002 706.999C569.687 706.922 569.355 706.926 569.042 707.012C568.877 707.067 568.716 707.132 568.559 707.206C568.286 707.357 568.058 707.571 567.895 707.828C567.769 708.042 567.695 708.28 567.679 708.525C567.662 708.77 567.704 709.015 567.801 709.242C567.898 709.469 568.047 709.673 568.238 709.838C568.429 710.002 568.656 710.124 568.903 710.193C569.025 710.193 569.141 710.227 569.258 710.232C569.362 710.259 569.47 710.27 569.578 710.266C569.899 710.263 570.212 710.178 570.487 710.021C570.709 709.891 570.898 709.716 571.04 709.507C571.182 709.298 571.273 709.062 571.306 708.815C571.34 708.569 571.315 708.318 571.234 708.082C571.152 707.846 571.017 707.63 570.836 707.45Z" fill="#328278"></path><path d="M572.159 705.613C572.308 705.743 572.503 705.816 572.706 705.816C572.909 705.816 573.104 705.743 573.254 705.613C573.385 705.532 573.492 705.421 573.565 705.289C573.638 705.158 573.676 705.012 573.673 704.863C573.666 704.736 573.646 704.609 573.615 704.485C573.558 704.294 573.438 704.126 573.272 704.006C573.106 703.886 572.903 703.82 572.695 703.819C572.487 703.822 572.285 703.888 572.119 704.008C571.954 704.128 571.833 704.295 571.774 704.485C571.743 704.609 571.724 704.736 571.716 704.863C571.716 705.014 571.756 705.162 571.834 705.293C571.911 705.425 572.023 705.535 572.159 705.613Z" fill="#328278"></path><path d="M557.83 680.832L519.386 675.579C519.386 675.579 503.181 685.574 510.771 692.631C518.361 699.688 551.213 712.57 551.213 712.57L559.03 721.626C559.03 721.626 546.466 726.068 558.669 726.734C570.872 727.401 561.954 717.55 561.954 717.55C566.27 714.719 563.702 712.276 562.933 711.659C563.771 712.214 567.045 714.013 570.505 709.71C571.113 708.947 571.513 708.053 571.67 707.106L573.551 708.033C579.242 705.257 580.396 696.19 580.396 696.19L557.83 680.832ZM571.32 702.92C570.538 700.476 569.348 698.168 567.796 696.085L575.642 698.095L571.32 702.92Z" fill="#AE7461"></path><path d="M536.895 687.562C485.054 655.324 410.63 713.353 410.63 713.353L388.909 628.455C388.909 628.455 246.899 653.591 230.252 705.829C203.195 790.727 237.014 798.345 237.014 798.345H542.138C542.138 798.345 525.671 778.911 527.925 772.459C530.179 766.007 588.736 719.799 536.895 687.562Z" fill="#031D0C"></path><path d="M396.65 347.811C396.65 347.811 399.353 370.576 398.52 373.152C397.687 375.728 391.46 380.476 391.274 382.63C391.088 384.785 396.348 406.006 394.891 408.577C393.435 411.148 383.789 405.634 381.919 406.428C380.05 407.222 371.959 428.955 367.386 431.331C362.814 433.708 351.741 424.179 351.741 424.179L340.237 460.215L283.957 438.877C283.957 438.877 316.104 383.763 316.518 378.222C316.931 372.68 308.829 354.268 330.789 337.461C358.189 316.495 396.65 347.811 396.65 347.811Z" fill="#AE7461"></path><path d="M352.725 369.71C342.24 362.275 328.878 359.065 315.854 359.943C314.403 368.316 316.728 375.207 316.5 378.266C316.087 383.818 283.939 438.921 283.939 438.921L340.219 460.26L351.723 424.224C353.511 425.726 355.396 427.119 357.367 428.394C359.251 417.555 361.134 406.715 363.018 395.873C363.734 391.764 364.445 387.544 363.478 383.474C362.15 377.755 357.641 373.191 352.725 369.71Z" fill="#AE7461"></path><path d="M394.606 408.921C393.219 408.302 391.974 407.426 390.945 406.344C389.916 405.262 389.123 403.996 388.612 402.619C388.391 401.791 388.07 400.99 387.657 400.232C387.448 399.853 387.131 399.538 386.742 399.323C386.354 399.108 385.91 399.002 385.461 399.016C385.061 399.092 384.689 399.267 384.383 399.523C384.076 399.78 383.845 400.108 383.714 400.476C383.451 401.209 383.285 401.97 383.219 402.741C383.019 403.99 382.651 405.209 382.124 406.367C384.314 406.051 392.573 410.587 394.606 408.921Z" fill="#E0A896"></path><path d="M388.379 374.635L389.509 381.853L392.2 377.072L388.379 374.635Z" fill="#031D0C"></path><path d="M386.946 341.542C382.787 345.762 382.286 352.819 385.781 357.544C380.288 359.432 375.407 363.413 373.462 368.649C372.505 371.288 372.166 374.094 372.468 376.871C372.77 379.647 373.706 382.328 375.209 384.723C369.671 391.679 366.052 399.848 364.684 408.483C364.218 411.681 364.101 415.146 365.849 417.922C367.596 420.698 371.708 422.314 374.493 420.476C374.33 423.308 374.743 426.028 373.654 428.655C372.565 431.281 370.386 433.685 367.497 434.352C363.903 435.173 360.292 433.241 357.368 431.059C353.604 428.288 350.222 425.075 347.302 421.498C355.329 401.509 362.715 381.131 370.747 361.114C371.499 359.238 369.699 356.511 368.027 355.284C367.177 354.68 366.164 354.319 365.107 354.243C364.05 354.168 362.992 354.38 362.057 354.857C359.861 356.017 358.783 358.438 358.16 360.753C356.636 366.412 356.893 372.373 358.899 377.894C358.072 380.27 353.174 389.31 352.341 391.686C341.308 378.238 326.711 382.564 315.883 380.32C308.788 373.702 315.271 361.203 317.118 351.908C318.091 347.253 320.23 342.891 323.354 339.195C326.478 335.499 330.494 332.578 335.058 330.681C343.586 327.233 353.418 327.705 362.301 330.204C371.184 332.702 378.89 337.183 386.946 341.542Z" fill="#031D0C"></path><path d="M401.531 371.853C399.583 370.651 397.387 369.86 395.091 369.535C392.795 369.209 390.453 369.356 388.222 369.965C392.299 370.681 396.021 373.147 398.555 376.311C399.429 374.857 400.693 373.291 401.531 371.853Z" fill="#031D0C"></path><path d="M386.527 403.675C384.921 398 385.717 402.999 385.187 402.909C385.097 402.903 385.006 402.916 384.921 402.946C384.836 402.977 384.759 403.025 384.696 403.087C384.632 403.148 384.583 403.222 384.552 403.304C384.522 403.385 384.51 403.472 384.517 403.558C384.596 403.961 384.821 404.325 385.152 404.586C385.515 404.878 385.905 405.138 386.317 405.363C386.847 405.668 387.372 405.996 387.908 406.29C388.339 406.529 388.56 406.429 388.379 406.029C387.905 405.151 387.279 404.355 386.527 403.675Z" fill="#AE7461"></path><path d="M380.341 409.188C379.98 408.976 379.662 408.703 379.403 408.383C379.118 408.099 378.821 407.827 378.594 407.511C378.053 406.861 377.558 406.176 377.114 405.462C376.219 404.094 375.571 402.593 375.198 401.02C375.198 400.992 375.146 401.02 375.151 401.02C375.441 402.636 375.975 404.203 376.736 405.673C377.125 406.381 377.582 407.054 378.099 407.683C378.349 407.988 378.605 408.288 378.873 408.582C379.266 408.915 379.62 409.287 379.928 409.693C380.207 410.22 381.04 409.454 380.341 409.188Z" fill="#BC806C"></path><path d="M362.243 377.633C360.296 372.615 359.536 367.25 360.018 361.919C360.175 360.209 360.496 358.416 361.614 357.067C362.263 356.281 363.14 355.695 364.137 355.383C365.134 355.07 366.205 355.046 367.216 355.312C368.228 355.579 369.134 356.124 369.821 356.88C370.508 357.635 370.946 358.568 371.079 359.56C368.126 365.556 365.196 371.664 362.243 377.633Z" fill="#E0A896"></path><path d="M363.991 353.852C360.636 354.451 358.218 357.5 357.525 360.687C357.334 361.601 357.24 362.531 357.246 363.463L357.211 363.657C356.498 368.115 356.995 372.672 358.655 376.894C358.985 377.93 359.586 378.869 360.403 379.621C360.818 379.99 361.345 380.225 361.908 380.294C362.471 380.362 363.043 380.261 363.542 380.004C364.463 379.449 364.742 378.227 364.579 377.189C364.324 376.169 363.985 375.17 363.566 374.201C363.105 372.631 362.854 371.012 362.82 369.382L362.372 362.641C362.273 361.142 362.179 359.593 362.692 358.166C363.056 357.115 363.821 356.233 364.835 355.695C366.014 355.534 367.215 355.659 368.33 356.056C368.661 356.279 368.963 356.54 369.227 356.833C369.494 357.16 369.728 357.509 369.926 357.877C370.078 358.159 370.205 358.452 370.305 358.754C370.435 359.179 370.47 359.624 370.409 360.062C370.348 360.5 370.191 360.92 369.95 361.297C369.315 362.18 368.15 362.541 367.27 363.202C366.616 363.757 366.098 364.443 365.754 365.211C365.409 365.979 365.247 366.809 365.278 367.644C365.36 369.307 365.697 370.95 366.28 372.519C368.231 367.955 370.509 363.557 372.46 358.993C371.872 355.667 367.48 353.23 363.991 353.852Z" fill="#BC806C"></path><path d="M325.529 320.503L319.745 344.54C319.745 344.54 343.417 319.887 398.077 361.414L400.594 330.242C400.594 330.242 344.419 292.125 325.529 320.503Z" fill="#263238"></path><path d="M553.38 676.818L477.138 616.634L421.72 482.192C414.643 463.652 353.145 429.06 353.145 429.06V413.891C310.478 383.546 285.07 399.354 285.07 399.354L277.608 426.561C277.608 426.561 220.157 477.467 217.07 489.993C205.036 538.738 230.106 606.595 230.106 606.595L216.191 778.778C286.7 814.197 400.594 790.699 400.594 790.699L401.258 728.467L438.811 773.525C459.104 755.258 447.548 691.348 447.548 691.348L423.037 687.567L417.212 630.56C426.043 646.573 433.9 659.638 437.646 662.853C441.577 666.218 453.728 674.286 467.888 683.37C490.168 676.335 515.436 674.252 536.854 687.567C541.279 690.249 545.313 693.475 548.854 697.162C551.663 690.704 553.197 683.807 553.38 676.818Z" fill="#8CC8C3"></path><path d="M402.98 618.583C413.64 623.242 418.043 632.52 421.853 642.67C427.975 653.275 433.106 661.243 435.92 663.659C439.851 667.023 452.002 675.091 466.162 684.175C488.442 677.14 513.71 675.058 535.128 688.373C539.553 691.055 543.587 694.281 547.128 697.967C549.175 693.135 550.545 688.066 551.205 682.892C523.275 662.865 496.015 642.132 467.665 622.542C448.198 576.307 428.021 529.033 408.549 482.792C388.488 509.044 376.512 544.202 382.081 576.24C375.283 542.472 379.331 507.535 393.695 475.996C375.23 463.886 355.205 451.087 336.74 438.977C327.636 433.003 312.654 433.236 301.791 431.204L328.783 427.206C327.502 418.183 325.871 409.166 324.281 400.143C298.156 390.876 283.268 400.143 283.268 400.143L275.806 427.35C275.806 427.35 218.356 478.255 215.268 490.782C203.234 539.527 228.304 607.384 228.304 607.384L214.389 779.567C284.94 815.008 398.833 791.51 398.833 791.51L399.497 729.278L437.05 774.336C454.944 758.234 448.088 706.596 446.218 694.641C436.205 695.546 426.239 697.49 415.9 699.85C405.338 674.006 400.926 646.25 402.98 618.583Z" fill="url(#paint0_linear_930_14)"></path><path d="M390.284 324.052C373.17 314.612 339.357 299.732 325.529 320.504L319.745 344.54C319.745 344.54 340.271 323.141 387.225 353.757L390.284 324.052Z" fill="url(#paint1_linear_930_14)"></path><path d="M424.458 192.54H420.975V167.205H424.43V174.721C425.771 174.253 427.014 173.575 428.32 173.427C429.793 173.258 431.284 173.366 432.716 173.746C435.645 174.552 436.875 176.906 436.987 179.679C437.157 183.932 437.031 188.196 437.031 192.516H433.483C433.483 192.158 433.483 191.82 433.483 191.481C433.45 187.858 433.509 184.23 433.358 180.611C433.217 177.191 430.79 175.736 427.522 176.877C425.529 177.576 424.726 179.105 424.628 181.017C424.49 183.708 424.499 186.404 424.458 189.092C424.439 190.224 424.458 191.35 424.458 192.54Z" fill="black"></path><path d="M463.338 172.908L466.557 174.645C466.212 175.466 465.895 176.236 465.565 177C462.831 183.366 460.092 189.73 457.35 196.092C456.982 196.942 456.533 197.757 456.093 198.575C455.306 200.04 454.1 200.885 452.402 200.991L449.886 201.143V197.943C450.541 197.852 451.225 197.771 451.905 197.661C452.372 197.596 452.813 197.405 453.18 197.11C453.547 196.815 453.826 196.426 453.988 195.985C454.414 194.94 454.794 193.873 455.132 192.796C455.211 192.539 455.096 192.187 454.978 191.909C452.663 186.531 450.339 181.156 448.006 175.785C447.852 175.442 447.713 175.096 447.535 174.677L450.624 172.935C452.77 177.909 454.889 182.796 457.086 187.867L463.338 172.908Z" fill="black"></path><path d="M400.85 173.467H404.397V174.447C404.397 177.578 404.362 180.709 404.417 183.839C404.428 184.907 404.573 185.969 404.848 187.002C405.209 188.318 406.15 189.208 407.533 189.458C411.653 190.202 413.279 188.3 413.376 185.109C413.482 181.605 413.413 178.101 413.419 174.596C413.419 174.253 413.419 173.909 413.419 173.505H417.015C417.032 173.734 417.064 173.982 417.064 174.23C417.064 177.564 417.081 180.898 417.055 184.23C417.056 185.098 416.982 185.965 416.834 186.82C416.129 190.648 413.768 192.702 409.783 192.897C408.649 192.96 407.511 192.882 406.396 192.665C403.088 191.99 401.16 189.863 400.914 185.961C400.651 181.823 400.85 177.672 400.85 173.467Z" fill="black"></path><path d="M391.458 192.539H388.239V173.479H391.458V176.031C393.389 173.875 395.707 173.289 398.308 173.261V176.851C397.482 176.932 396.674 176.984 395.873 177.093C393.302 177.442 392.008 178.678 391.69 181.233C391.529 182.521 391.536 183.833 391.516 185.135C391.49 187.512 391.507 189.891 391.504 192.268C391.494 192.359 391.478 192.449 391.458 192.539Z" fill="black"></path><path d="M444.879 192.578C443.858 192.578 442.9 192.578 441.941 192.578C441.801 192.578 441.662 192.557 441.481 192.543V173.498H444.881L444.879 192.578Z" fill="black"></path><path d="M440.672 169.013C440.674 168.525 440.821 168.047 441.095 167.641C441.368 167.235 441.756 166.918 442.209 166.729C442.663 166.541 443.162 166.489 443.645 166.581C444.128 166.673 444.573 166.904 444.924 167.245C445.276 167.587 445.519 168.024 445.622 168.502C445.725 168.98 445.685 169.477 445.506 169.932C445.326 170.387 445.016 170.78 444.614 171.061C444.212 171.342 443.735 171.499 443.244 171.512C442.909 171.518 442.577 171.457 442.266 171.335C441.956 171.212 441.672 171.029 441.433 170.796C441.194 170.564 441.004 170.287 440.873 169.981C440.742 169.675 440.674 169.346 440.672 169.013Z" fill="black"></path><path d="M413.29 114.43H408.655V153.061H413.29V114.43Z" fill="#FFD966"></path><path fill-rule="evenodd" clip-rule="evenodd" d="M400.241 133.533L427.39 106.543L430.747 109.881L403.597 136.869L400.241 133.533Z" fill="#328278"></path><path d="M447.161 114.43H408.655V119.037H447.161V114.43Z" fill="#FFD966"></path><path d="M427.607 106.563L424.269 109.921L451.573 136.752L454.912 133.395L427.607 106.563Z" fill="#328278"></path><path d="M447.161 114.43H442.526V153.061H447.161V114.43Z" fill="#FFD966"></path><path d="M451.455 130.468L424.305 157.458L427.661 160.794L454.812 133.805L451.455 130.468Z" fill="#328278"></path><path d="M447.161 148.454H408.655V153.061H447.161V148.454Z" fill="#FFD966"></path><path d="M403.473 130.646L400.136 134.001L427.441 160.833L430.778 157.477L403.473 130.646Z" fill="#328278"></path><path d="M403.395 134.19L410.661 127.248L410.497 117.272L420.609 117.435L427.642 110.267L434.673 117.435L444.784 117.272L444.62 127.248L451.887 134.19L444.62 141.129L444.784 151.105L434.673 150.942L427.642 158.11L420.609 150.942L410.497 151.105L410.661 141.129L403.395 134.19Z" stroke="white" stroke-miterlimit="10"></path></g><defs><linearGradient id="paint0_linear_930_14" x1="253.095" y1="804.303" x2="517.247" y2="327.059" gradientUnits="userSpaceOnUse"><stop stop-color="#328278"></stop></linearGradient><linearGradient id="paint1_linear_930_14" x1="312.434" y1="375.49" x2="395.365" y2="294.704" gradientUnits="userSpaceOnUse"><stop offset="1"></stop></linearGradient><clipPath id="clip0_930_14"><rect width="671" height="720" fill="white" transform="translate(91 79)"></rect></clipPath><clipPath id="clip1_930_14"><rect width="671" height="720" fill="white" transform="translate(-122 636.324) rotate(-61.2571)"></rect></clipPath></defs></svg>